<svg width="34.000000" height="21.000000" viewBox="0 0 34 21" fill="none" xmlns="http://www.w3.org/2000/svg" xmlns:xlink="http://www.w3.org/1999/xlink">
	<desc>
			Created with Pixso.
	</desc>
	<defs/>
	<path id="Union" d="M32.5 0L1.5 0C0.67157 0 0 0.671631 0 1.5C0 2.32837 0.67157 3 1.5 3L32.5 3C33.3284 3 34 2.32837 34 1.5C34 0.671631 33.3284 0 32.5 0ZM32.5 9L1.5 9C0.67157 9 0 9.67163 0 10.5C0 11.3284 0.67157 12 1.5 12L32.5 12C33.3284 12 34 11.3284 34 10.5C34 9.67163 33.3284 9 32.5 9ZM1.5 18L32.5 18C33.3284 18 34 18.6716 34 19.5C34 20.3284 33.3284 21 32.5 21L1.5 21C0.67157 21 0 20.3284 0 19.5C0 18.6716 0.67157 18 1.5 18Z" clip-rule="evenodd" fill="#FFC725" fill-opacity="1.000000" fill-rule="evenodd"/>
</svg>
