<svg width="20.958405" height="20.977783" viewBox="0 0 20.9584 20.9778" fill="none" xmlns="http://www.w3.org/2000/svg" xmlns:xlink="http://www.w3.org/1999/xlink">
	<desc>
			Created with Pixso.
	</desc>
	<defs/>
	<path id="Union" d="M12.5015 10.5222L20.5224 18.3928C21.0134 18.8748 21.0133 19.656 20.5222 20.1379C20.0311 20.6199 19.2348 20.6201 18.7438 20.1382L10.7229 12.2676L2.21466 20.6165C1.7236 21.0984 0.927368 21.0981 0.436218 20.6162C-0.0549316 20.1343 -0.0549927 19.353 0.436066 18.8711L8.94431 10.5222L0.368256 2.10669C-0.122803 1.62476 -0.122742 0.843506 0.368408 0.361572C0.859558 -0.120361 1.65579 -0.120605 2.14685 0.361328L10.7229 8.77686L18.8116 0.8396C19.3026 0.357666 20.0988 0.35791 20.59 0.839844C21.0811 1.32178 21.0812 2.10303 20.5902 2.58496L12.5015 10.5222Z" clip-rule="evenodd" fill="#FFC725" fill-opacity="1.000000" fill-rule="evenodd"/>
</svg>
